<svg width="35" height="35" viewBox="0 0 35 35" fill="none" xmlns="http://www.w3.org/2000/svg">
<g id="icon/social/publicon/social/24px">
<path id="icon/social/publicon/social/24px_2" fill-rule="evenodd" clip-rule="evenodd" d="M17.5 4.375C9.44999 4.375 2.91666 10.9083 2.91666 18.9583C2.91666 27.0083 9.44999 33.5417 17.5 33.5417C25.55 33.5417 32.0833 27.0083 32.0833 18.9583C32.0833 10.9083 25.55 4.375 17.5 4.375ZM5.83332 18.9583C5.83332 18.0688 5.94999 17.1938 6.13957 16.3625L13.1104 23.3333V24.7917C13.1104 26.3958 14.4229 27.7083 16.0271 27.7083V30.5229C10.2958 29.7938 5.83332 24.8938 5.83332 18.9583ZM23.3187 24.7917C24.6312 24.7917 25.7104 25.6521 26.0896 26.8333C27.9854 24.7625 29.1667 21.9917 29.1667 18.9583C29.1667 14.0729 26.1333 9.87292 21.8604 8.15209V8.75C21.8604 10.3542 20.5479 11.6667 18.9437 11.6667H16.0271V14.5833C16.0271 15.3854 15.3708 16.0417 14.5687 16.0417H11.6521V18.9583H20.4021C21.2042 18.9583 21.8604 19.6146 21.8604 20.4167V24.7917H23.3187Z" fill="#0458D7" fill-opacity="0.95"/>
</g>
</svg>
